<svg width="85.828" height="71.298" viewBox="0 0 85.828 71.298" xmlns="http://www.w3.org/2000/svg"><g id="svgGroup" stroke-linecap="round" fill-rule="evenodd" font-size="9pt" stroke="#000" stroke-width="0.25mm" fill="#000000" style="stroke:#000;stroke-width:0.25mm;fill:#000000"><path d="M 40.078 55.734 L 41.157 49.125 L 32.203 49.125 A 353.938 353.938 0 0 1 32.701 46.441 Q 33.197 43.831 33.618 41.869 A 101.951 101.951 0 0 1 33.985 40.219 A 68.266 68.266 0 0 1 34.354 38.701 Q 34.899 36.574 35.391 35.344 A 9.886 9.886 0 0 1 35.717 34.61 Q 36.22 33.599 36.75 33.281 A 2.947 2.947 0 0 1 37.882 32.893 A 3.77 3.77 0 0 1 38.391 32.859 L 63.047 32.859 Q 63.899 32.859 64.385 32.947 A 2.411 2.411 0 0 1 64.617 33 Q 65.106 33.14 65.11 33.973 A 2.864 2.864 0 0 1 65.11 33.984 A 4.696 4.696 0 0 1 65.096 34.324 Q 65.074 34.626 65.016 34.992 A 160.771 160.771 0 0 1 64.939 35.468 Q 64.869 35.895 64.782 36.422 L 62.438 44.297 Q 62.016 45.797 61.735 46.617 Q 61.542 47.179 61.283 47.543 A 1.973 1.973 0 0 1 61.032 47.836 A 1.633 1.633 0 0 1 60.425 48.193 Q 60.195 48.271 59.92 48.301 A 2.951 2.951 0 0 1 59.883 48.305 A 11.014 11.014 0 0 1 59.48 48.336 Q 58.817 48.375 57.797 48.375 A 1.381 1.381 0 0 0 57.471 48.411 Q 57.013 48.522 56.907 48.984 A 15.085 15.085 0 0 0 56.684 50.168 A 16.471 16.471 0 0 0 56.672 50.25 Q 56.391 52.313 56.11 54.352 A 501.663 501.663 0 0 1 55.834 56.32 A 402.374 402.374 0 0 1 55.571 58.149 Q 55.349 59.659 55.11 60.858 A 36.116 36.116 0 0 1 55.032 61.242 Q 54.75 62.578 54.469 63.188 A 238.012 238.012 0 0 1 51.519 65.025 Q 50.115 65.884 48.848 66.628 A 142.923 142.923 0 0 1 48.68 66.727 Q 46.078 68.25 43.5 69.258 A 29.063 29.063 0 0 1 38.063 70.781 A 30.67 30.67 0 0 1 35.197 71.151 Q 33.69 71.278 32.003 71.295 A 51.959 51.959 0 0 1 31.5 71.297 A 32.295 32.295 0 0 1 20.58 69.467 A 30.687 30.687 0 0 1 19.125 68.906 A 29.808 29.808 0 0 1 9.117 62.18 A 31.319 31.319 0 0 1 2.83 52.771 A 35.944 35.944 0 0 1 2.438 51.844 Q 0 45.844 0 38.578 A 42.482 42.482 0 0 1 1.092 28.862 A 39.694 39.694 0 0 1 1.242 28.242 A 40.238 40.238 0 0 1 4.782 19.008 A 36.86 36.86 0 0 1 10.336 11.227 Q 13.594 7.734 17.625 5.227 A 34.641 34.641 0 0 1 26.367 1.359 A 35.371 35.371 0 0 1 35.633 0.005 A 39.484 39.484 0 0 1 36.282 0 A 53.585 53.585 0 0 1 39.698 0.103 Q 41.77 0.236 43.524 0.539 A 41.467 41.467 0 0 1 46.099 1.065 Q 47.656 1.437 48.961 1.899 Q 50.946 2.6 52.382 3.422 A 13.63 13.63 0 0 1 52.852 3.703 Q 54.422 4.688 55.453 5.578 Q 55.413 5.578 55.407 5.819 A 3.666 3.666 0 0 0 55.407 5.906 A 14.32 14.32 0 0 0 55.413 6.3 Q 55.434 7.049 55.524 8.484 A 406.306 406.306 0 0 0 55.653 10.465 A 551.013 551.013 0 0 0 55.805 12.656 Q 55.969 14.953 56.086 17.32 A 112.09 112.09 0 0 1 56.158 19.007 Q 56.186 19.839 56.197 20.574 A 58.191 58.191 0 0 1 56.203 21.422 Q 56.203 21.643 56.087 21.908 A 2.125 2.125 0 0 1 56.016 22.055 Q 55.828 22.406 55.078 22.406 Q 54.772 22.406 54.366 22.332 A 7.142 7.142 0 0 1 54.047 22.266 A 5.132 5.132 0 0 1 53.382 22.019 Q 52.705 21.719 51.848 21.165 A 19.347 19.347 0 0 1 51.563 20.977 A 39.534 39.534 0 0 0 50.048 20.011 Q 49.244 19.522 48.333 19.013 A 64.997 64.997 0 0 0 48.071 18.867 A 27.19 27.19 0 0 0 45.397 17.582 A 33.409 33.409 0 0 0 43.617 16.899 A 15.382 15.382 0 0 0 39.697 16.087 A 18.412 18.412 0 0 0 38.25 16.031 A 15.796 15.796 0 0 0 33.614 16.695 A 14.134 14.134 0 0 0 31.266 17.649 Q 28.125 19.266 25.922 22.149 A 20.275 20.275 0 0 0 23.382 26.565 A 25.133 25.133 0 0 0 22.5 28.992 Q 21.282 32.953 21.282 37.594 A 39.315 39.315 0 0 0 21.604 42.724 A 33.227 33.227 0 0 0 22.032 45.234 A 23.745 23.745 0 0 0 22.966 48.533 A 17.818 17.818 0 0 0 24.305 51.399 A 13.227 13.227 0 0 0 26.34 54.069 A 11.298 11.298 0 0 0 28.078 55.5 Q 30.328 57 33.375 57 Q 35.887 57 38.976 56.084 A 31.057 31.057 0 0 0 40.078 55.734 Z" id="0"/><path d="M 65.672 70.828 L 65.672 70.641 A 1039.155 1039.155 0 0 0 65.716 69.596 Q 65.778 68.115 65.813 67.149 A 1310.613 1310.613 0 0 0 65.835 66.541 Q 65.865 65.684 65.883 65.156 A 83.518 83.518 0 0 0 65.893 64.832 Q 65.907 64.383 65.907 64.172 L 65.907 63.633 A 7.241 7.241 0 0 1 65.91 63.423 Q 65.915 63.234 65.93 63 Q 65.952 62.655 65.993 61.892 A 448.948 448.948 0 0 0 66 61.758 Q 66.036 61.094 66.1 60.045 A 614.759 614.759 0 0 1 66.141 59.367 A 390.512 390.512 0 0 0 66.191 58.543 Q 66.245 57.627 66.312 56.444 A 1222.902 1222.902 0 0 0 66.375 55.313 A 21.641 21.641 0 0 1 66.428 54.609 Q 66.521 53.622 66.68 53.18 A 0.987 0.987 0 0 1 67.172 52.631 Q 67.339 52.543 67.557 52.489 A 2.423 2.423 0 0 1 67.735 52.453 A 1605.194 1605.194 0 0 0 74.133 52.44 A 1826.862 1826.862 0 0 0 76.36 52.43 Q 80.86 52.406 84.844 52.359 A 1.254 1.254 0 0 1 85.175 52.401 A 0.975 0.975 0 0 1 85.547 52.594 A 0.64 0.64 0 0 1 85.719 52.829 Q 85.811 53.035 85.826 53.359 A 2.781 2.781 0 0 1 85.828 53.484 L 84.516 68.203 Q 84.328 69.75 84.164 70.336 Q 84.025 70.832 83.365 70.975 A 2.385 2.385 0 0 1 83.11 71.016 Q 79.125 71.063 74.93 71.109 A 760.173 760.173 0 0 1 68.439 71.153 A 856.772 856.772 0 0 1 66.188 71.156 A 2.688 2.688 0 0 1 66.057 71.153 Q 65.933 71.147 65.852 71.129 A 0.436 0.436 0 0 1 65.789 71.109 A 0.154 0.154 0 0 1 65.709 71.033 Q 65.679 70.973 65.673 70.873 A 0.831 0.831 0 0 1 65.672 70.828 Z" id="1"/></g></svg>