<svg width="1024" height="1024" viewBox="0 0 1024 1024" fill="none" xmlns="http://www.w3.org/2000/svg">
<g clip-path="url(#clip0_1_33)">
<rect width="1024" height="1024" fill="white"/>
<rect width="1024" height="1024" fill="black"/>
<path fill-rule="evenodd" clip-rule="evenodd" d="M495.601 680.398L504.809 624.001H428.401C429.788 616.361 431.205 608.726 432.651 601.097C435.472 586.249 438.081 573.244 440.476 562.083C441.481 557.381 442.525 552.687 443.607 548.003C444.608 543.673 445.657 539.355 446.756 535.049C449.857 522.949 452.806 513.4 455.605 506.403C456.447 504.278 457.375 502.189 458.387 500.139C461.249 494.388 464.187 490.608 467.202 488.799C470.162 487.046 473.449 485.919 476.862 485.488C478.301 485.293 479.753 485.196 481.205 485.198H691.603C696.45 485.198 700.256 485.448 703.021 485.948C703.688 486.067 704.348 486.217 705 486.401C707.782 487.197 709.185 489.965 709.207 494.704C709.208 494.735 709.208 494.766 709.207 494.798C709.203 495.766 709.163 496.734 709.088 497.699C708.963 499.417 708.735 501.317 708.405 503.399C708.188 504.753 707.969 506.107 707.748 507.461C707.35 509.89 706.903 512.604 706.408 515.602L686.406 582.802C684.006 591.335 682.006 597.934 680.407 602.599C679.31 605.796 678.024 608.43 676.55 610.501C675.92 611.402 675.202 612.24 674.409 613.001C672.924 614.381 671.156 615.421 669.229 616.048C667.92 616.491 666.484 616.799 664.919 616.969C664.814 616.981 664.709 616.993 664.604 617.003C663.459 617.113 662.313 617.201 661.165 617.268C657.393 617.49 652.606 617.601 646.803 617.601C645.867 617.592 644.933 617.695 644.021 617.908C641.416 618.539 639.812 620.169 639.209 622.798C638.44 626.139 637.805 629.509 637.306 632.901C637.271 633.134 637.237 633.367 637.203 633.601C635.605 645.337 634.006 657.005 632.407 668.605C631.634 674.204 630.848 679.802 630.052 685.398C629.316 690.602 628.568 695.805 627.808 701.006C626.545 709.596 625.234 717.301 623.874 724.122C623.658 725.216 623.436 726.308 623.209 727.399C621.604 735 620.003 740.535 618.404 744.005C610.051 749.291 601.66 754.517 593.231 759.681C585.244 764.568 577.646 769.127 570.438 773.36C569.961 773.642 569.483 773.923 569.005 774.204C554.202 782.869 539.468 790.068 524.802 795.802C509.795 801.63 494.257 805.983 478.406 808.799C470.308 810.235 462.147 811.288 453.95 811.956C445.377 812.678 436.292 813.088 426.694 813.185C425.264 813.197 423.833 813.203 422.402 813.202C390.673 813.4 359.149 808.117 329.218 797.586C325.04 796.096 320.9 794.499 316.802 792.799C284.722 779.685 255.66 760.153 231.401 735.403C208.791 712.12 190.611 684.912 177.751 655.113C176.6 652.492 175.484 649.855 174.406 647.203C160.537 613.07 153.602 575.335 153.602 534C153.507 506.097 156.634 478.276 162.921 451.09C163.333 449.323 163.76 447.559 164.201 445.799C170.992 418.391 181.138 391.926 194.409 367.002C207.257 342.906 223.189 320.586 241.803 300.604C260.337 280.733 281.07 263.667 304.002 249.404C327.223 235.008 352.328 223.899 378.601 216.398C404.329 209.059 430.918 205.173 457.67 204.843C459.516 204.814 461.362 204.8 463.209 204.801C472.932 204.784 482.654 205.077 492.358 205.68C504.146 206.436 515.029 207.676 525.007 209.4C532.377 210.664 539.705 212.161 546.98 213.889C555.838 216.005 563.979 218.377 571.403 221.006C582.695 224.993 592.426 229.326 600.595 234.002C601.948 234.774 603.285 235.574 604.606 236.4C613.537 242.003 620.936 247.337 626.801 252.4C626.574 252.4 626.443 253.085 626.409 254.456C626.406 254.704 626.406 254.951 626.409 255.199C626.41 256.319 626.427 257.44 626.46 258.561C626.579 262.822 626.895 269.034 627.407 277.198C627.76 282.833 628.127 288.468 628.508 294.102C628.928 300.335 629.36 306.567 629.805 312.799C630.738 325.866 631.537 339.132 632.203 352.598C632.444 357.395 632.648 362.194 632.817 366.994C632.976 371.727 633.087 376.184 633.15 380.366C633.185 382.777 633.202 385.19 633.201 387.602C633.201 388.859 632.871 390.241 632.211 391.749C632.025 392.175 631.823 392.593 631.605 393.003C630.536 395 627.868 395.999 623.601 395.999C621.86 395.999 619.835 395.788 617.525 395.367C616.614 395.2 615.706 395.012 614.803 394.804C612.865 394.233 610.969 393.529 609.129 392.696C605.277 390.99 600.914 388.56 596.038 385.409C595.223 384.881 594.412 384.346 593.606 383.804C589.36 380.959 585.05 378.211 580.678 375.561C576.105 372.779 571.226 369.941 566.044 367.045C565.299 366.628 564.554 366.213 563.808 365.799C556.407 361.731 548.79 358.071 540.99 354.834C535.983 352.747 530.918 350.803 525.801 349.006C515 345.249 503.754 342.919 492.35 342.076C488.242 341.755 484.123 341.596 480.002 341.599C466.607 341.511 453.274 343.421 440.442 347.265C433.533 349.373 426.827 352.097 420.405 355.406C402.537 364.604 387.336 377.404 374.803 393.806C366.023 405.405 358.74 418.066 353.129 431.489C350.266 438.259 347.754 445.171 345.602 452.199C338.673 474.733 335.209 499.201 335.209 525.603C335.169 540.239 336.086 554.862 337.956 569.379C338.9 576.562 340.118 583.707 341.609 590.798C343.583 600.361 346.247 609.77 349.579 618.949C352.655 627.424 356.479 635.608 361.005 643.406C365.802 651.707 371.637 659.363 378.37 666.19C382.895 670.744 387.863 674.834 393.201 678.401C406.001 686.934 421.068 691.201 438.402 691.201C452.693 691.201 468.624 688.595 486.197 683.384C489.35 682.447 492.485 681.451 495.601 680.398Z" fill="white" stroke="black" stroke-width="8.06299" stroke-linecap="round"/>
<path fill-rule="evenodd" clip-rule="evenodd" d="M714.003 809.2V807.604C714.13 804.632 714.255 801.659 714.379 798.687C714.731 790.262 715.007 783.301 715.206 777.806C715.269 776.076 715.332 774.347 715.394 772.617C715.565 767.742 715.701 763.802 715.804 760.799C715.834 759.877 715.862 758.956 715.889 758.034C715.969 755.48 716.009 753.602 716.009 752.402V747.802C716.008 747.205 716.017 746.608 716.034 746.01C716.063 744.935 716.12 743.732 716.205 742.401C716.33 740.438 716.509 737.287 716.742 732.946C716.762 732.565 716.782 732.184 716.802 731.802C717.007 728.025 717.291 723.153 717.656 717.185C717.771 715.256 717.888 713.328 718.005 711.399C718.15 709.056 718.292 706.712 718.432 704.368C718.739 699.157 719.083 693.186 719.465 686.456C719.645 683.239 719.824 680.022 720.002 676.805C720.12 674.8 720.271 672.798 720.454 670.798C720.984 665.183 721.7 661.118 722.605 658.604C723.347 656.558 724.851 654.879 726.803 653.919C727.753 653.418 728.848 653.014 730.089 652.707C730.591 652.586 731.098 652.483 731.608 652.4C749.806 652.399 768.005 652.362 786.204 652.289C792.538 652.264 798.873 652.236 805.208 652.204C830.808 652.067 854.94 651.865 877.604 651.598C878.558 651.591 879.508 651.711 880.429 651.956C881.594 652.268 882.677 652.83 883.603 653.603C884.24 654.15 884.742 654.836 885.071 655.608C885.594 656.78 885.899 658.288 885.984 660.131C885.998 660.486 886.003 660.842 886.001 661.198L874.805 786.8C873.736 795.601 872.735 801.668 871.802 805.001C871.011 807.823 868.738 809.641 864.984 810.454C864.265 810.61 863.539 810.727 862.808 810.804C840.137 811.071 816.87 811.336 793.005 811.598C774.542 811.802 756.079 811.927 737.615 811.973C731.212 811.99 724.809 811.999 718.406 811.999C718.034 811.999 717.661 811.991 717.289 811.973C716.583 811.939 716 811.871 715.539 811.768C715.356 811.725 715.176 811.668 715.002 811.598C714.702 811.473 714.459 811.242 714.319 810.949C714.148 810.608 714.046 810.153 714.012 809.584C714.005 809.456 714.003 809.328 714.003 809.2Z" fill="white" stroke="black" stroke-width="8.06299" stroke-linecap="round"/>
</g>
<defs>
<clipPath id="clip0_1_33">
<rect width="1024" height="1024" fill="white"/>
</clipPath>
</defs>
</svg>
