<svg width="1024" height="1024" viewBox="0 0 1024 1024" fill="none" xmlns="http://www.w3.org/2000/svg">
<g clip-path="url(#clip0_1_33)">
<rect width="1024" height="1024" fill="white"/>
<rect width="1024" height="1024" fill="url(#paint0_linear_1_33)"/>
<path d="M370.605 76.8H653.395C748.195 76.8 789.69 77.1015 834.269 91.0673C880.017 107.928 916.071 143.982 932.932 189.73C946.898 234.301 947.2 275.81 947.2 370.605V653.395C947.2 748.196 946.898 789.691 932.932 834.27C916.071 880.019 880.015 916.073 834.269 932.925C789.691 946.898 748.199 947.2 653.395 947.2H370.605C275.8 947.2 234.301 946.898 189.732 932.925C143.985 916.073 107.929 880.019 91.0673 834.269C77.1015 789.69 76.8 748.195 76.8 653.395V370.605C76.8 275.811 77.1017 234.302 91.067 189.732C107.928 143.983 143.983 107.928 189.732 91.067C234.302 77.1017 275.803 76.8 370.605 76.8Z" stroke="white" stroke-width="17.0667"/>
<path fill-rule="evenodd" clip-rule="evenodd" d="M579.59 524.241C574.467 522.69 569.134 521.929 563.778 521.985C558.536 522.001 553.296 522.204 548.068 522.592C542.415 522.997 536.305 523.604 529.735 524.413C523.347 525.206 516.973 526.11 510.617 527.126C509.942 527.232 509.268 527.339 508.593 527.447C487.064 530.943 465.68 535.266 444.49 540.406C438.257 541.909 432.037 543.468 425.833 545.083C410.765 548.996 395.801 553.294 380.955 557.97C367.288 562.288 355.866 566.472 346.689 570.522C342.906 572.174 339.197 573.99 335.574 575.963C340.184 590.814 348.972 602.523 361.938 611.091C368.105 615.166 374.849 618.309 381.95 620.416C390.186 622.818 398.735 624.006 407.32 623.943C412.398 623.938 417.474 623.716 422.534 623.279C431.514 622.489 440.435 621.137 449.244 619.231C452.963 618.435 456.683 617.64 460.402 616.846C472.097 614.351 483.793 611.861 495.49 609.378C494.244 620.125 492.026 630.74 488.863 641.093C485.414 652.382 481.128 663.403 476.041 674.065C465.38 696.627 452.413 717.762 437.142 737.468C436.191 738.696 435.23 739.916 434.261 741.131C420.261 758.802 404.261 774.822 386.574 788.875C368.133 803.441 349.693 812.723 331.252 816.721C317.421 815.579 304.599 810.438 292.786 801.299C286.651 796.516 281.065 791.078 276.131 785.084C270.834 778.643 266.137 771.739 262.099 764.457C253.455 749.034 246.54 731.042 241.353 710.479C238.853 700.463 236.989 690.302 235.771 680.056C234.272 667.404 233.538 654.674 233.574 641.936C233.574 574.535 243.37 513.846 262.963 459.868C271.866 435.49 282.798 411.887 295.645 389.304C313.168 358.649 333.477 329.643 356.32 302.647C373.176 282.403 389.986 264.827 406.751 249.919C418.965 238.953 432.016 228.94 445.786 219.967C450.489 216.927 455.296 214.05 460.2 211.342C470.66 205.582 480.877 201.063 490.851 197.783C503.198 193.582 516.148 191.381 529.202 191.264C560.897 191.264 576.745 204.402 576.745 230.677C576.755 234.99 576.461 239.299 575.866 243.571C574.467 254.268 570.629 264.509 564.643 273.516C564.197 274.177 563.74 274.832 563.274 275.48C555.053 286.941 541.678 299.424 523.151 312.928C525.456 326.066 531.507 337.633 541.304 347.628C551.1 357.624 562.626 364.621 575.88 368.62C581.577 363.437 587.104 358.074 592.455 352.541C598.962 345.786 604.703 339.208 609.679 332.806C614.622 326.527 619.072 319.882 622.991 312.928C632.499 295.793 637.253 277.229 637.253 257.237C637.26 253.496 637.082 249.758 636.72 246.035C635.895 234.429 632.54 223.14 626.887 212.945C621.233 202.749 613.416 193.891 603.974 186.98C596.533 181.479 588.402 176.962 579.784 173.543C560.911 165.937 538 162.133 511.049 162.133C460.337 162.133 411.498 175.128 364.532 201.117C317.565 227.107 275.93 261.521 239.624 304.36C236.787 307.708 233.994 311.093 231.247 314.513C198.201 355.952 171.598 402.058 152.319 451.3C130.42 506.42 119.471 563.397 119.471 622.23C119.382 641.925 120.599 661.604 123.116 681.141C126.055 703.08 130.764 722.89 137.242 740.574C144.903 762.537 156.938 782.75 172.633 800.014C186.279 814.454 202.537 826.229 220.564 834.728C237.718 843.005 257.242 849.224 279.135 853.384C299.756 857.159 320.658 859.225 341.625 859.56C355.445 855.979 368.821 850.89 381.51 844.388C393.838 838.093 405.647 830.848 416.828 822.718C442.185 804.44 465.524 783.163 486.846 758.888C508.168 734.612 526.321 708.623 541.304 680.92C556.287 653.217 565.507 626.799 568.965 601.667C583.372 602.238 596.626 603.951 608.728 606.807C609.414 604.77 609.998 602.483 610.478 599.946C610.823 598.102 611.104 596.247 611.321 594.384C611.897 589.529 612.185 584.816 612.185 580.247C612.189 577.485 612.083 574.725 611.868 571.972C610.73 557.601 606.514 546.08 599.219 537.407C594.113 531.214 587.289 526.637 579.59 524.241Z" fill="white" stroke="black" stroke-width="8.06299" stroke-linecap="round"/>
<path fill-rule="evenodd" clip-rule="evenodd" d="M721.79 691.16C721.79 701.119 719.413 710.626 714.659 719.68C709.905 728.733 703.508 736.655 695.469 743.446C687.431 750.236 678.009 755.623 667.204 759.607C656.519 763.505 645.292 765.522 633.977 765.575C633.6 765.58 633.222 765.582 632.845 765.582C631.581 765.586 630.318 765.527 629.059 765.408C627.788 765.284 626.622 765.093 625.56 764.833C624.545 764.594 623.555 764.254 622.602 763.817C621.66 763.364 620.759 762.823 619.909 762.201C618.129 760.918 616.217 759.148 614.174 756.891C605.53 776.628 598.486 794.781 593.04 811.349C589.164 823.083 585.791 834.993 582.931 847.043C581.951 851.198 581.042 855.371 580.204 859.56C577.336 858.868 574.549 857.851 571.891 856.527C569.049 855.111 566.431 853.249 564.127 851.005C559.978 846.93 556.174 841.815 552.717 835.658C554.263 832.58 556.086 828.633 558.186 823.816C558.439 823.237 558.69 822.658 558.94 822.078C559.926 819.79 560.906 817.5 561.881 815.208C562.76 813.145 563.689 810.955 564.667 808.637C565.7 806.193 566.73 803.747 567.757 801.299C569.146 797.987 570.522 794.668 571.884 791.342C573.096 788.385 574.363 785.269 575.686 781.994C577.07 778.564 578.446 775.13 579.815 771.693C584.396 760.195 589.799 746.75 596.022 731.359C597.01 728.837 597.999 726.316 598.989 723.795C599.772 721.8 600.521 719.894 601.237 718.077C601.918 716.347 602.6 714.618 603.283 712.889C605.358 707.638 607.173 702.704 608.729 698.086C610.285 693.469 611.711 688.897 613.007 684.37C614.304 679.843 615.644 674.863 617.027 669.431C611.645 671.217 606.358 673.301 601.187 675.674C598.962 676.7 596.765 677.788 594.596 678.938C591.766 680.429 589 682.049 586.304 683.793C583.649 685.52 581.238 687.286 579.072 689.089C578.579 689.5 578.092 689.919 577.611 690.345C576.934 689.866 576.293 689.334 575.694 688.752C574.749 687.845 573.789 686.747 572.814 685.456C571.441 683.632 570.189 681.712 569.066 679.709C568.796 679.23 568.533 678.746 568.276 678.259C566.893 675.633 565.682 672.962 564.645 670.246C564.245 669.206 563.894 668.145 563.595 667.068C563.303 666.004 563.089 664.989 562.953 664.022C562.901 663.653 562.86 663.283 562.83 662.912C565.169 661.235 567.599 659.699 570.106 658.313C573.522 656.41 577.32 654.594 581.501 652.863C587.268 650.485 593.142 648.403 599.102 646.622C601.178 645.999 603.264 645.409 605.358 644.85C613.829 642.587 622.602 640.821 631.678 639.554C637.971 638.664 644.3 638.079 650.645 637.802C653.008 637.703 655.374 637.653 657.739 637.652C662.69 637.633 667.636 637.999 672.535 638.746C676.571 639.365 680.555 640.317 684.449 641.591C688.416 642.88 692.263 644.546 695.941 646.568C699.032 648.274 701.957 650.291 704.675 652.591C710.207 657.299 714.443 662.912 717.382 669.431C719.76 674.77 721.192 680.518 721.608 686.393C721.731 687.979 721.791 689.569 721.79 691.16ZM655.405 660.196L658.517 665.085C657.944 665.871 657.393 666.673 656.864 667.491C655.795 669.135 654.601 671.12 653.281 673.447C652.861 674.188 652.445 674.932 652.034 675.678C650.999 677.562 649.989 679.461 649.007 681.375C648.137 683.068 647.24 684.855 646.318 686.735C645.356 688.7 644.409 690.673 643.477 692.654C640.365 699.263 636.951 706.642 633.234 714.791C629.517 722.939 625.584 731.54 621.435 740.594C634.919 740.594 647.194 739.281 658.258 736.655C662.859 735.577 667.4 734.235 671.861 732.636C677.298 730.669 682.229 728.388 686.653 725.791C690.036 723.825 693.256 721.567 696.28 719.039C699.571 716.298 702.522 713.137 705.064 709.63C709.472 703.473 711.677 696.864 711.677 689.802C711.712 686.231 711.209 682.675 710.186 679.268C708.739 674.582 706.12 670.388 702.601 667.122C699.68 664.429 696.265 662.388 692.565 661.124C689.661 660.085 686.43 659.362 682.873 658.956C680.468 658.689 678.051 658.559 675.632 658.567C669.406 658.579 663.189 659.041 657.024 659.95C656.484 660.029 655.944 660.111 655.405 660.196Z" fill="white" stroke="black" stroke-width="8.06299" stroke-linecap="round"/>
<path fill-rule="evenodd" clip-rule="evenodd" d="M758.813 672.632C760.971 673.083 763.17 673.303 765.375 673.287C766.125 673.286 766.876 673.279 767.627 673.266C772.306 673.19 777.551 672.882 783.362 672.342C790.124 671.712 797.292 670.947 804.866 670.047C803.784 674.187 802.477 678.776 800.944 683.815C799.411 688.854 797.698 694.074 795.805 699.473C793.911 704.872 791.973 710.316 789.989 715.806C788.006 721.295 786.112 726.559 784.309 731.598C783.988 732.488 783.667 733.377 783.346 734.267C781.116 740.453 779.004 746.328 777.008 751.891C775.109 757.183 773.215 762.477 771.325 767.773C769.196 773.745 767.223 779.362 765.406 784.623C764.069 788.494 762.751 792.371 761.453 796.254C761.065 797.413 760.679 798.571 760.294 799.73C757.98 806.704 755.932 813.014 754.149 818.661C752.076 825.23 750.318 831.304 748.875 836.884C751.792 841.669 754.964 845.711 758.392 849.009C764.016 854.644 771.295 858.34 779.17 859.56C780.432 852.001 781.875 844.262 783.498 836.344C784.014 833.825 784.552 831.31 785.111 828.8C786.414 822.968 787.815 817.158 789.313 811.372C791.567 802.643 794.182 793.24 797.157 783.161C800.133 773.083 803.604 762.104 807.571 750.226C807.704 749.815 807.837 749.405 807.97 748.995C808.915 746.104 809.938 743.047 811.038 739.826C812.208 736.402 813.396 732.985 814.604 729.574C817.309 721.925 820.149 714.231 823.124 706.492C823.494 705.528 823.867 704.565 824.242 703.603C826.775 697.096 829.424 690.634 832.185 684.22C833.105 682.085 834.037 679.956 834.98 677.831C835.885 675.794 836.763 673.85 837.615 671.998C838.58 669.898 839.565 667.808 840.571 665.728C846.521 665.008 852.427 664.468 858.288 664.108C864.148 663.748 869.964 663.568 875.734 663.568C876.532 663.568 877.33 663.574 878.128 663.588C879.519 663.614 881.015 663.66 882.613 663.726C884.243 663.794 885.872 663.876 887.5 663.973C892.099 664.243 896.742 664.558 901.43 664.918C899.988 656.639 897.779 650.025 894.803 645.076C891.828 640.126 887.004 637.652 880.332 637.652C877.988 637.652 872.759 638.057 864.644 638.867C860.08 639.321 855.116 639.79 849.751 640.275C845.34 640.673 840.927 641.058 836.513 641.431C833.823 641.659 831.132 641.88 828.441 642.097C820 642.776 811.556 643.409 803.108 643.996C796.929 644.425 791.094 644.74 785.603 644.943C781.026 645.116 776.447 645.205 771.867 645.211C770.698 645.21 769.53 645.201 768.361 645.184C765.856 645.146 763.492 645.067 761.268 644.945C759.433 644.848 757.601 644.712 755.772 644.536C755.338 644.493 754.903 644.447 754.47 644.396C751.882 644.093 749.688 643.682 747.888 643.161C747.023 642.918 746.178 642.61 745.359 642.241C745.304 642.349 745.251 642.458 745.199 642.567C744.857 643.289 744.548 644.075 744.27 644.925C744.01 645.729 743.786 646.545 743.6 647.37C743.498 647.817 743.405 648.265 743.321 648.716C743.186 649.44 743.085 650.123 743.019 650.765C742.958 651.341 742.926 651.92 742.924 652.5C742.924 658.259 744.863 663.163 748.74 667.213C751.344 669.933 754.702 671.74 758.813 672.632Z" fill="white" stroke="black" stroke-width="8.06299" stroke-linecap="round"/>
</g>
<defs>
<linearGradient id="paint0_linear_1_33" x1="512" y1="0" x2="512" y2="1024" gradientUnits="userSpaceOnUse">
<stop stop-color="#343541"/>
<stop offset="1"/>
</linearGradient>
<clipPath id="clip0_1_33">
<rect width="1024" height="1024" fill="white"/>
</clipPath>
</defs>
</svg>
